<svg width="32" height="30" viewBox="0 0 32 30" fill="none" xmlns="http://www.w3.org/2000/svg">
<path fill-rule="evenodd" clip-rule="evenodd" d="M15.7239 16.8362C20.3867 16.8362 24.1688 13.0603 24.1688 8.40517C24.1688 3.75 20.3867 0 15.7239 0C11.0611 0 7.27905 3.77586 7.27905 8.40517C7.27905 13.0345 11.0611 16.8362 15.7239 16.8362ZM15.7242 2.19827C19.1436 2.19827 21.9413 4.99138 21.9413 8.40517C21.9413 11.819 19.1436 14.6121 15.7242 14.6121C12.3048 14.6121 9.50708 11.819 9.50708 8.40517C9.50708 4.99138 12.3048 2.19827 15.7242 2.19827ZM1.1139 30H30.4378C31.0595 30 31.5517 29.5086 31.5517 28.8879C31.5517 23.069 26.8112 18.3103 20.9568 18.3103H10.595C4.76644 18.3103 0 23.0431 0 28.8879C0 29.5086 0.492186 30 1.1139 30ZM10.5949 20.5345H20.9567C25.205 20.5345 28.7021 23.6897 29.2461 27.7759H2.30542C2.84942 23.7155 6.34653 20.5345 10.5949 20.5345Z" fill="#696D73"/>
</svg>
