<svg width="24" height="44" viewBox="0 0 24 44" fill="none" xmlns="http://www.w3.org/2000/svg">
<path fill-rule="evenodd" clip-rule="evenodd" d="M22.0643 40.6524L1.76654 43.7432C1.69136 43.7432 1.61619 43.7432 1.54101 43.7432C1.16512 43.7432 0.826828 43.6301 0.526121 43.3663C0.187826 43.0648 -0.000116348 42.6501 -0.000116348 42.1978V4.61795C-0.000116348 3.86409 0.563711 3.22331 1.31548 3.11023L21.6132 0.0194057C22.0643 -0.0559802 22.5153 0.0947916 22.8536 0.358642C23.1919 0.660186 23.3799 1.07481 23.3799 1.52712V39.107C23.3799 39.8985 22.8161 40.5393 22.0643 40.6524ZM20.2976 3.3364L3.08211 5.93721V40.4263L20.2976 37.8254V3.3364Z" fill="#696D73"/>
</svg>
