<svg width="22" height="23" viewBox="0 0 22 23" fill="none" xmlns="http://www.w3.org/2000/svg">
<path fill-rule="evenodd" clip-rule="evenodd" d="M1.49334 4.03417C0.907552 3.44838 0.907552 2.49864 1.49334 1.91285C2.07912 1.32706 3.02887 1.32706 3.61466 1.91285L20.7138 19.012C21.2996 19.5978 21.2996 20.5475 20.7138 21.1333C20.128 21.7191 19.1783 21.7191 18.5925 21.1333L1.49334 4.03417Z" fill="#555555"/>
<path fill-rule="evenodd" clip-rule="evenodd" d="M20.7138 4.03417C21.2996 3.44838 21.2996 2.49864 20.7138 1.91285C20.128 1.32706 19.1783 1.32706 18.5925 1.91285L1.49334 19.012C0.907551 19.5978 0.907551 20.5475 1.49334 21.1333C2.07912 21.7191 3.02887 21.7191 3.61466 21.1333L20.7138 4.03417Z" fill="#555555"/>
</svg>
