<svg width="29" height="41" viewBox="0 0 29 41" fill="none" xmlns="http://www.w3.org/2000/svg">
<path fill-rule="evenodd" clip-rule="evenodd" d="M13.9824 2.82978C20.1583 2.82978 25.1545 7.79914 25.1545 13.9418C25.1545 14.7355 25.7791 15.3567 26.5771 15.3567C27.3751 15.3567 27.9996 14.7355 27.9996 13.9418C27.9996 6.24621 21.7196 0 13.9824 0C6.24526 0 0 6.28072 0 13.9418V22.8798V38.6851C0 39.4788 0.624526 40.1 1.42253 40.1H26.924C27.722 40.1 28.3465 39.4788 28.3465 38.6851V22.8798C28.3465 22.0861 27.722 21.4649 26.924 21.4649H2.81037V13.9418C2.81037 7.83365 7.84127 2.82978 13.9824 2.82978ZM25.5015 24.2947V37.2702H2.81036V24.2947H25.5015ZM14.1906 33.06C15.4553 33.06 16.4806 32.0403 16.4806 30.7824C16.4806 29.5245 15.4553 28.5048 14.1906 28.5048C12.9259 28.5048 11.9007 29.5245 11.9007 30.7824C11.9007 32.0403 12.9259 33.06 14.1906 33.06Z" fill="#696D73"/>
</svg>
