<svg width="35" height="30" viewBox="0 0 35 30" fill="none" xmlns="http://www.w3.org/2000/svg">
<path fill-rule="evenodd" clip-rule="evenodd" d="M0.0300518 28.9189C0.0300518 28.9489 0.0300518 28.979 0.0601036 29.039C0.0601036 29.0691 0.0901554 29.1291 0.0901554 29.1592C0.0901554 29.1892 0.120207 29.2192 0.120207 29.2793C0.150259 29.3093 0.150259 29.3393 0.180311 29.3994C0.210363 29.4294 0.210363 29.4595 0.240415 29.4895C0.270466 29.5195 0.300518 29.5496 0.300518 29.5796C0.33057 29.6096 0.360622 29.6396 0.390674 29.6697L0.420725 29.6997C0.420725 29.6997 0.450777 29.6997 0.450777 29.7297C0.540933 29.8198 0.66114 29.8799 0.781347 29.9099C0.811399 29.9099 0.811399 29.9099 0.841451 29.9399C0.961658 29.97 1.08187 30 1.20207 30H33.628C33.7482 30 33.8684 29.97 33.9886 29.9399C34.0187 29.9399 34.0187 29.9399 34.0487 29.9099C34.1689 29.8498 34.2891 29.7898 34.3793 29.7297C34.3793 29.7297 34.4093 29.7297 34.4093 29.6997L34.4394 29.6697C34.4694 29.6396 34.4995 29.6096 34.5295 29.5796C34.5596 29.5496 34.5896 29.5195 34.5896 29.4895C34.6197 29.4595 34.6197 29.4294 34.6497 29.3994C34.6798 29.3694 34.6798 29.3393 34.7098 29.2793C34.7399 29.2493 34.7399 29.2192 34.7399 29.1592C34.7399 29.1291 34.7699 29.0691 34.7699 29.039C34.7699 29.009 34.8 28.979 34.8 28.9189C34.8 28.8889 34.8 28.8288 34.8 28.7988C34.8 28.7688 34.8 28.7688 34.8 28.7387V1.23123C34.8 0.540541 34.2591 0 33.5679 0H1.23212C0.540933 0 0 0.540541 0 1.23123V28.7387C0 28.7688 0 28.7688 0 28.7988C0.0300518 28.8288 0.0300518 28.8589 0.0300518 28.9189ZM3.87668 27.5075L12.9824 16.6366L16.7689 19.2792C16.9793 19.4294 17.2197 19.4894 17.4601 19.4894C17.7005 19.4894 17.9409 19.4294 18.1513 19.2792L21.9378 16.6366L31.0435 27.5075H3.87668ZM32.456 25.3454L23.9513 15.2252L32.4259 9.30933V25.3454H32.456ZM2.49429 2.4624H32.456V6.33628L17.4901 16.7567L2.49429 6.33628V2.4624ZM2.49429 9.30933L10.9689 15.2252L2.49429 25.3454V9.30933Z" fill="#696D73"/>
</svg>
