<svg width="35" height="32" viewBox="0 0 35 32" fill="none" xmlns="http://www.w3.org/2000/svg">
<path fill-rule="evenodd" clip-rule="evenodd" d="M1.20846 31.86H33.0115C33.6895 31.86 34.22 31.3255 34.22 30.6426V3.47402C34.22 2.79109 33.6895 2.25663 33.0115 2.25663H27.0282V1.21739C27.0282 0.534464 26.4977 0 25.8197 0C25.1418 0 24.6113 0.534464 24.6113 1.21739V2.25663H9.81504V1.21739C9.81504 0.534464 9.2845 0 8.60658 0C7.92867 0 7.39812 0.534464 7.39812 1.21739V2.25663H1.20846C0.530543 2.25663 0 2.79109 0 3.47402V30.6723C0 31.3255 0.560017 31.86 1.20846 31.86ZM2.41699 4.69141H7.3982V5.34464C7.3982 6.02757 7.92874 6.56203 8.60666 6.56203C9.28457 6.56203 9.81511 6.02757 9.81511 5.34464V4.69141H24.6114V5.34464C24.6114 6.02757 25.1419 6.56203 25.8198 6.56203C26.4977 6.56203 27.0283 6.02757 27.0283 5.34464V4.69141H31.8326V7.83881H2.41699V4.69141ZM2.41699 10.2736H31.8032V29.4549H2.41699V10.2736ZM25.8197 15.8558H8.42965C7.75173 15.8558 7.22119 16.3902 7.22119 17.0732C7.22119 17.7561 7.75173 18.2906 8.42965 18.2906H25.8197C26.4976 18.2906 27.0281 17.7561 27.0281 17.0732C27.0281 16.3902 26.4976 15.8558 25.8197 15.8558ZM17.1247 21.7349H8.42965C7.75173 21.7349 7.22119 22.2693 7.22119 22.9523C7.22119 23.6352 7.75173 24.1697 8.42965 24.1697H17.1247C17.8026 24.1697 18.3331 23.6352 18.3331 22.9523C18.3331 22.2693 17.8026 21.7349 17.1247 21.7349Z" fill="#696D73"/>
</svg>
