<svg width="22" height="23" viewBox="0 0 22 23" fill="none" xmlns="http://www.w3.org/2000/svg">
<path fill-rule="evenodd" clip-rule="evenodd" d="M1.49328 4.03417C0.907491 3.44838 0.907491 2.49864 1.49328 1.91285C2.07906 1.32706 3.02881 1.32706 3.6146 1.91285L20.7137 19.012C21.2995 19.5978 21.2995 20.5475 20.7137 21.1333C20.1279 21.7191 19.1782 21.7191 18.5924 21.1333L1.49328 4.03417Z" fill="#555555"/>
<path fill-rule="evenodd" clip-rule="evenodd" d="M20.7138 4.03417C21.2995 3.44838 21.2995 2.49864 20.7138 1.91285C20.128 1.32706 19.1782 1.32706 18.5924 1.91285L1.49331 19.012C0.907521 19.5978 0.90752 20.5475 1.49331 21.1333C2.07909 21.7191 3.02884 21.7191 3.61463 21.1333L20.7138 4.03417Z" fill="#555555"/>
</svg>
